
<svg xmlns="http://www.w3.org/2000/svg" viewBox="0 0 1440 320">
  <path fill="#0099ff" fill-opacity="1" d="M0,224L30,192C60,160,120,96,180,101.3C240,107,300,181,360,213.3C420,245,480,235,540,213.3C600,192,660,160,720,170.7C780,181,840,235,900,234.7C960,235,1020,181,1080,138.7C1140,96,1200,64,1260,58.7C1320,53,1380,75,1410,85.3L1440,96L1440,320L1410,320C1380,320,1320,320,1260,320C1200,320,1140,320,1080,320C1020,320,960,320,900,320C840,320,780,320,720,320C660,320,600,320,540,320C480,320,420,320,360,320C300,320,240,320,180,320C120,320,60,320,30,320L0,320Z"></path>
</svg>